<?xml version="1.0" encoding="UTF-8" standalone="no"?>
<svg
   width="12.425101"
   height="14.684211"
   viewBox="0 0 12.425101 14.684211"
   version="1.1"
   id="svg1"
   sodipodi:docname="delete.svg"
   inkscape:version="1.3-beta (cedbd6c6ff, 2023-05-28)"
   xmlns:inkscape="http://www.inkscape.org/namespaces/inkscape"
   xmlns:sodipodi="http://sodipodi.sourceforge.net/DTD/sodipodi-0.dtd"
   xmlns="http://www.w3.org/2000/svg"
   xmlns:svg="http://www.w3.org/2000/svg">
  <sodipodi:namedview
     id="namedview1"
     pagecolor="#ffffff"
     bordercolor="#666666"
     borderopacity="1.0"
     inkscape:showpageshadow="2"
     inkscape:pageopacity="0.0"
     inkscape:pagecheckerboard="0"
     inkscape:deskcolor="#d1d1d1"
     inkscape:zoom="19"
     inkscape:cx="-1.1578947"
     inkscape:cy="5.7105263"
     inkscape:window-width="1366"
     inkscape:window-height="705"
     inkscape:window-x="1432"
     inkscape:window-y="-8"
     inkscape:window-maximized="1"
     inkscape:current-layer="svg1" />
  <!-- Generator: Sketch 3.8.3 (29802) - http://www.bohemiancoding.com/sketch -->
  <title
     id="title1">Icon</title>
  <desc
     id="desc1">Created with Sketch.</desc>
  <defs
     id="defs1" />
  <g
     data-name="Layer 2"
     id="Layer_2"
     transform="matrix(0.56477733,0,0,0.56477733,-2.8238866,-1.694332)"
     style="fill:#ff5555">
    <path
       d="M 20,29 H 12 A 5,5 0 0 1 7,24 V 12 a 1,1 0 0 1 2,0 v 12 a 3,3 0 0 0 3,3 h 8 a 3,3 0 0 0 3,-3 V 12 a 1,1 0 0 1 2,0 v 12 a 5,5 0 0 1 -5,5 z"
       id="path1"
       style="fill:#ff5555" />
    <path
       d="M 26,9 H 6 A 1,1 0 0 1 6,7 h 20 a 1,1 0 0 1 0,2 z"
       id="path2"
       style="fill:#ff5555" />
    <path
       d="M 20,9 H 12 A 1,1 0 0 1 11,8 V 6 a 3,3 0 0 1 3,-3 h 4 a 3,3 0 0 1 3,3 V 8 A 1,1 0 0 1 20,9 Z M 13,7 h 6 V 6 A 1,1 0 0 0 18,5 h -4 a 1,1 0 0 0 -1,1 z"
       id="path3"
       style="fill:#ff5555" />
    <path
       d="m 14,23 a 1,1 0 0 1 -1,-1 v -7 a 1,1 0 0 1 2,0 v 7 a 1,1 0 0 1 -1,1 z"
       id="path4"
       style="fill:#ff5555" />
    <path
       d="m 18,23 a 1,1 0 0 1 -1,-1 v -7 a 1,1 0 0 1 2,0 v 7 a 1,1 0 0 1 -1,1 z"
       id="path5"
       style="fill:#ff5555" />
  </g>
</svg>
